<svg width="71" height="71" viewBox="0 0 71 71" fill="none" xmlns="http://www.w3.org/2000/svg">
<path fill-rule="evenodd" clip-rule="evenodd" d="M3.60547 19.4834V11.5098C3.60547 7.15131 7.15138 3.60547 11.5098 3.60547H19.4834C20.479 3.60547 21.2861 2.79833 21.2861 1.80273C21.2861 0.80714 20.479 0 19.4834 0H11.5098C5.16331 0 0 5.16324 0 11.5098V19.4834C0 20.479 0.80714 21.2861 1.80273 21.2861C2.79833 21.2861 3.60547 20.479 3.60547 19.4834ZM19.4834 67.3945C20.479 67.3945 21.2861 68.2017 21.2861 69.1973C21.2861 70.1929 20.479 71 19.4834 71H11.5098C5.16331 71 0 65.8367 0 59.4902V51.5166C0 50.521 0.80714 49.7139 1.80273 49.7139C2.79833 49.7139 3.60547 50.521 3.60547 51.5166V59.4902C3.60547 63.8486 7.15138 67.3945 11.5098 67.3945H19.4834ZM71 51.5166V59.4902C71 65.8367 65.8367 71 59.4902 71H51.5166C50.521 71 49.7139 70.1929 49.7139 69.1973C49.7139 68.2017 50.521 67.3945 51.5166 67.3945H59.4902C63.8486 67.3945 67.3945 63.8486 67.3945 59.4902V51.5166C67.3945 50.521 68.2017 49.7139 69.1973 49.7139C70.1929 49.7139 71 50.521 71 51.5166ZM71 11.5098V19.4834C71 20.479 70.1929 21.2861 69.1973 21.2861C68.2017 21.2861 67.3945 20.479 67.3945 19.4834V11.5098C67.3945 7.15131 63.8486 3.60547 59.4902 3.60547H51.5166C50.521 3.60547 49.7139 2.79833 49.7139 1.80273C49.7139 0.80714 50.521 0 51.5166 0H59.4902C65.8367 0 71 5.16324 71 11.5098ZM47.9408 52.4759C48.7003 51.7744 48.7473 50.59 48.0457 49.8305C47.3441 49.071 46.1598 49.024 45.4003 49.7255C42.6978 52.2219 39.1818 53.5967 35.5 53.5967C31.8182 53.5967 28.3021 52.2219 25.5996 49.7255C24.84 49.024 23.6558 49.071 22.9542 49.8305C22.2526 50.59 22.2996 51.7744 23.0591 52.4759C26.4555 55.6131 30.8737 57.3408 35.5 57.3408C40.1263 57.3408 44.5444 55.6131 47.9408 52.4759ZM39.2441 26.7637V40.0762C39.2441 42.7142 37.098 44.8604 34.46 44.8604H32.9346C31.9006 44.8604 31.0625 44.0222 31.0625 42.9883C31.0625 41.9543 31.9006 41.1162 32.9346 41.1162H34.46C35.0334 41.1162 35.5 40.6497 35.5 40.0762V26.7637C35.5 25.7297 36.3381 24.8916 37.3721 24.8916C38.406 24.8916 39.2441 25.7297 39.2441 26.7637ZM52.1406 31.9985V26.6597C52.1406 25.6832 51.349 24.8916 50.3726 24.8916C49.3961 24.8916 48.6045 25.6832 48.6045 26.6597V31.9985C48.6045 32.975 49.3961 33.7666 50.3726 33.7666C51.349 33.7666 52.1406 32.975 52.1406 31.9985ZM19.2754 31.9985C19.2754 32.975 20.067 33.7666 21.0435 33.7666C22.0199 33.7666 22.8115 32.975 22.8115 31.9985V26.6597C22.8115 25.6832 22.0199 24.8916 21.0435 24.8916C20.067 24.8916 19.2754 25.6832 19.2754 26.6597V31.9985Z" fill="#007AFF"/>
</svg>
